<svg width="117" height="87" viewBox="0 0 117 87" fill="none" xmlns="http://www.w3.org/2000/svg">
<circle cx="58" cy="43" r="30" fill="#FEFEFE"/>
<path d="M54 55H62" stroke="#171717" stroke-width="2" stroke-linecap="round" stroke-linejoin="round"/>
<path d="M49.0252 39.9999C49.0236 38.8139 49.2567 37.6393 49.7111 36.5439C50.1655 35.4484 50.8322 34.4537 51.6729 33.6171C52.5135 32.7805 53.5114 32.1185 54.6091 31.6694C55.7067 31.2203 56.8824 30.9928 58.0684 31.0002C63.0171 31.037 66.9755 35.1503 66.9755 40.1129V40.9999C66.9755 45.4769 67.9121 48.0748 68.7371 49.4947C68.826 49.6464 68.8732 49.8189 68.8742 49.9947C68.8751 50.1705 68.8297 50.3435 68.7424 50.4962C68.6552 50.6488 68.5292 50.7758 68.3773 50.8642C68.2253 50.9527 68.0527 50.9995 67.8769 50.9999H48.1228C47.947 50.9995 47.7743 50.9526 47.6224 50.8642C47.4704 50.7757 47.3444 50.6487 47.2572 50.496C47.17 50.3434 47.1245 50.1704 47.1255 49.9945C47.1265 49.8187 47.1738 49.6462 47.2627 49.4945C48.0881 48.0745 49.0252 45.4766 49.0252 40.9999L49.0252 39.9999Z" stroke="#171717" stroke-width="2" stroke-linecap="round" stroke-linejoin="round"/>
</svg>
